<svg width="16" height="16" viewBox="0 0 24 24" fill="none" xmlns="http://www.w3.org/2000/svg">
<path d="M22 5.92c-.77.35-1.6.58-2.47.69a4.2 4.2 0 001.84-2.32 8.3 8.3 0 01-2.64 1.01A4.16 4.16 0 0015.3 4c-2.32 0-4.2 1.88-4.2 4.2 0 .33.04.66.1.97A11.8 11.8 0 013 5.15a4.2 4.2 0 001.3 5.6 4.14 4.14 0 01-1.9-.52v.05c0 2.04 1.45 3.74 3.37 4.13-.35.1-.72.16-1.1.16-.27 0-.53-.03-.78-.08.53 1.66 2.07 2.88 3.9 2.91A8.35 8.35 0 012 19.54 11.8 11.8 0 008.36 21c7.07 0 10.94-5.86 10.94-10.94 0-.17-.01-.33-.02-.5A7.8 7.8 0 0022 5.92z" fill="#111827"/>
</svg>

